<svg width="32" height="32" viewBox="0 0 32 32" fill="none" xmlns="http://www.w3.org/2000/svg">
<rect x="1" y="1" width="30" height="30" rx="3" stroke="black" stroke-width="2"/>
<rect x="6" y="6" width="3.2" height="3.2" rx="1" fill="black"/>
<rect x="6" y="11.3333" width="3.2" height="3.2" rx="1" fill="black"/>
<rect x="6" y="16.6667" width="3.2" height="3.2" rx="1" fill="black"/>
<rect x="6" y="22" width="3.2" height="3.2" rx="1" fill="black"/>
<rect x="11.3335" y="6" width="3.2" height="3.2" rx="1" fill="black"/>
<rect x="11.3335" y="11.3333" width="3.2" height="3.2" rx="1" fill="black"/>
<rect x="11.3335" y="16.6667" width="3.2" height="3.2" rx="1" fill="black"/>
<rect x="11.3335" y="22" width="3.2" height="3.2" rx="1" fill="black"/>
<rect x="16.6667" y="6" width="3.2" height="3.2" rx="1" fill="black"/>
<rect x="16.6667" y="11.3333" width="3.2" height="3.2" rx="1" fill="black"/>
<rect x="16.6667" y="16.6667" width="3.2" height="3.2" rx="1" fill="black"/>
<rect x="22" y="6" width="3.2" height="3.2" rx="1" fill="black"/>
<rect x="22" y="11.3333" width="3.2" height="3.2" rx="1" fill="black"/>
<rect x="22" y="16.6667" width="3.2" height="3.2" rx="1" fill="black"/>
</svg>
