<svg width="32" height="32" viewBox="0 0 32 32" fill="none" xmlns="http://www.w3.org/2000/svg">
<rect x="7" y="20" width="2" height="22" rx="1" transform="rotate(-90 7 20)" fill="black"/>
<rect x="3" y="20" width="2" height="2" rx="1" transform="rotate(-90 3 20)" fill="black"/>
<rect x="7" y="26" width="2" height="22" rx="1" transform="rotate(-90 7 26)" fill="black"/>
<rect x="3" y="26" width="2" height="2" rx="1" transform="rotate(-90 3 26)" fill="black"/>
<rect x="7" y="14" width="2" height="22" rx="1" transform="rotate(-90 7 14)" fill="black"/>
<rect x="3" y="14" width="2" height="2" rx="1" transform="rotate(-90 3 14)" fill="black"/>
<rect x="7" y="8" width="2" height="22" rx="1" transform="rotate(-90 7 8)" fill="black"/>
<rect x="3" y="8" width="2" height="2" rx="1" transform="rotate(-90 3 8)" fill="black"/>
</svg>
