<svg width="32" height="32" viewBox="0 0 32 32" fill="none" xmlns="http://www.w3.org/2000/svg">
<path fill-rule="evenodd" clip-rule="evenodd" d="M19.5973 2.57545L19.6236 2.47703C19.3661 2.40804 19.1084 2.34669 18.8507 2.29285C19.1057 2.37879 19.3546 2.47309 19.5973 2.57545Z" fill="black"/>
<path d="M19.6236 2.47703L19.5973 2.57545C19.3546 2.47309 19.1057 2.37879 18.8507 2.29285C11.6325 0.785065 4.40939 5.16549 2.4772 12.3765C0.54501 19.5876 4.61021 26.9927 11.6152 29.296C11.8653 29.3782 12.1192 29.454 12.3767 29.523C19.8452 31.5241 27.5219 27.092 29.5231 19.6235C31.5243 12.1549 27.0922 4.47822 19.6236 2.47703ZM24.251 6.4937C24.123 6.29666 24.3703 6.04625 24.5472 6.20082C28.1646 9.36077 29.8843 14.412 28.5572 19.3646C27.2301 24.3173 23.2153 27.832 18.5026 28.7599C18.272 28.8052 18.1831 28.4647 18.3924 28.3581C21.7828 26.6307 24.4557 23.0805 25.6594 18.5882C26.8631 14.0959 26.3234 9.68481 24.251 6.4937Z" fill="black"/>
</svg>
