<svg width="32" height="32" viewBox="0 0 32 32" fill="none" xmlns="http://www.w3.org/2000/svg">
<path fill-rule="evenodd" clip-rule="evenodd" d="M12.403 29.4246L12.3766 29.523C12.6341 29.592 12.8918 29.6533 13.1496 29.7071C12.8945 29.6212 12.6456 29.5269 12.403 29.4246Z" fill="black"/>
<path d="M12.3766 29.523L12.403 29.4246C12.6456 29.5269 12.8945 29.6212 13.1496 29.7071C20.3677 31.2149 27.5909 26.8345 29.523 19.6235C31.4552 12.4124 27.39 5.00731 20.385 2.70402C20.1349 2.62178 19.881 2.54604 19.6235 2.47704C12.155 0.475858 4.4783 4.90801 2.47712 12.3765C0.475934 19.8451 4.90809 27.5218 12.3766 29.523ZM7.74927 25.5063C7.87724 25.7033 7.62996 25.9537 7.45301 25.7992C3.8356 22.6392 2.11599 17.588 3.44305 12.6354C4.7701 7.68272 8.78494 4.16803 13.4977 3.24014C13.7282 3.19475 13.8172 3.53525 13.6078 3.64191C10.2175 5.36926 7.54453 8.91953 6.34082 13.4118C5.13712 17.9041 5.67681 22.3152 7.74927 25.5063Z" fill="black"/>
</svg>
